# xmcd
#
# Track frame offsets:
#	150
#	14843
#	27903
#	42700
#	56905
#	68493
#	84035
#	97180
#	110343
#	126425
#	139623
#	152265
#	164243
#	180505
#
# Disc length: 2600 seconds
#
# Revision: 0
# Processed by: cddbd v1.5.1PL0 Copyright (c) Steve Scherf et al.
# Submitted via: EasyCDDAExtractor 8.2.1.1
#
DISCID=bf0a260e
DTITLE=Various Artist - Irelands Country Girls
DYEAR=1998
DGENRE=Irish
TTITLE0=Margo - Any Tipperary Town
TTITLE1=Susan McCann - Where The River Shannon Flows
TTITLE2=Ann Breen - Bunch of Violets
TTITLE3=Margo - Three Leaf Shamrock
TTITLE4=Philomena Quinn - Moonlight In Mayo
TTITLE5=Susan McCann - Travellin' People
TTITLE6=Margo - West of the Old River Shannon
TTITLE7=Margo - Boys From Co. Armagh
TTITLE8=Ann Breen - Love Is Teasin'
TTITLE9=Philomena Quinn - Forty Shades of Green
TTITLE10=Margo - Boys From Co. Mayo
TTITLE11=Ann Breen - Gentle Mother
TTITLE12=Philomena Quinn - If We Only Had Old Ireland Over Here
TTITLE13=Susan McCann - Isle of Innisfree
EXTD=
EXTT0=
EXTT1=
EXTT2=
EXTT3=
EXTT4=
EXTT5=
EXTT6=
EXTT7=
EXTT8=
EXTT9=
EXTT10=
EXTT11=
EXTT12=
EXTT13=
PLAYORDER=
